# xmcd
#
# Track frame offsets: 
#        150
#        32248
#        46623
#        79724
#        105510
#        120104
#        154307
#        169307
#        213198
#        246982
#        283575
#        297589
#        310188
#        329741
#
# Disc length: 4473 seconds
#
# Revision: 0
# Processed by: cddbd v1.5.2PL0 Copyright (c) Steve Scherf et al.
# Submitted via: ExactAudioCopyFreeDBPlugin 1.0
#
DISCID=c411770e
DTITLE=Double Exposure - Ten Percent (2012 Remastered)
DYEAR=1976
DGENRE=Funk
TTITLE0=Ten Percent
TTITLE1=Gonna Give My Love Away
TTITLE2=Everyman
TTITLE3=Baby I Need Your Loving
TTITLE4=Just Can't Say Hello
TTITLE5=My Love Is Free
TTITLE6=Pick Me
TTITLE7=Ten Percent (Original Walter Gibbons 12" Mix)
TTITLE8=Ten Percent (Original Ken Cayre 12" Mix)
TTITLE9=My Love Is Free (Original Tom Moulton Mix)
TTITLE10=Ten Percent (Single Version)
TTITLE11=Everyman Has To Carry His On Weight (Single Version)
TTITLE12=Ten Percent (Original Acappella Version)
TTITLE13=Ten Percent (Original Background Vocals Version)
EXTD=
EXTT0=
EXTT1=
EXTT2=
EXTT3=
EXTT4=
EXTT5=
EXTT6=
EXTT7=
EXTT8=
EXTT9=
EXTT10=
EXTT11=
EXTT12=
EXTT13=
PLAYORDER=
